<!DOCTYPE svg PUBLIC "-//W3C//DTD SVG 1.1//EN" "http://www.w3.org/Graphics/SVG/1.1/DTD/svg11.dtd">
<!-- Uploaded to: SVG Repo, www.svgrepo.com, Transformed by: SVG Repo Mixer Tools -->
<svg version="1.1" id="Layer_1" xmlns="http://www.w3.org/2000/svg" xmlns:xlink="http://www.w3.org/1999/xlink" viewBox="0 0 512.00 512.00" xml:space="preserve" width="64px" height="64px" fill="#00000000" stroke="#00000000" stroke-width="0.00512">
<g id="SVGRepo_bgCarrier" stroke-width="0"/>
<g id="SVGRepo_tracerCarrier" stroke-linecap="round" stroke-linejoin="round"/>
<g id="SVGRepo_iconCarrier"> <polygon style="fill:#b3cde3;" points="103.489,193.362 92.596,346.78 133.447,332.255 133.447,193.362 "/> <polygon style="fill:#b3cde3;" points="103.489,193.362 73.532,193.362 73.532,332.255 103.489,346.78 "/> <polygon style="fill:rgb(132, 95, 92);;" points="103.489,471.149 133.447,471.149 133.447,332.255 103.489,332.255 92.596,401.702 "/> <rect x="73.532" y="332.255" style="fill:#fbb4ae;" width="29.957" height="138.894"/> <polygon style="fill:#b3cde3;" points="473.872,54.468 462.979,284.596 503.83,262.809 503.83,54.468 "/> <polygon style="fill:#b3cde3;" points="473.872,54.468 443.915,54.468 443.915,262.809 473.872,284.596 "/> <polygon style="fill:rgb(132, 95, 92);;" points="473.872,471.149 503.83,471.149 503.83,262.809 473.872,262.809 462.979,366.979 "/> <rect x="443.915" y="262.809" style="fill:#fbb4ae;" width="29.957" height="208.34"/> <polygon style="fill:#b3cde3;" points="381.277,193.362 370.383,346.78 411.234,332.255 411.234,193.362 "/> <polygon style="fill:#b3cde3;" points="381.277,193.362 351.319,193.362 351.319,332.255 381.277,346.78 "/> <polygon style="fill:rgb(132, 95, 92);;" points="381.277,471.149 411.234,471.149 411.234,332.255 381.277,332.255 370.383,401.702 "/> <rect x="351.319" y="332.255" style="fill:#fbb4ae;" width="29.957" height="138.894"/> <polygon style="fill:#b3cde3;" points="288.681,100.766 277.787,305.324 318.638,285.957 318.638,100.766 "/> <polygon style="fill:#b3cde3;" points="288.681,100.766 258.723,100.766 258.723,285.957 288.681,305.324 "/> <polygon style="fill:rgb(132, 95, 92);;" points="288.681,471.149 318.638,471.149 318.638,285.957 288.681,285.957 277.787,378.553 "/> <rect x="258.723" y="285.957" style="fill:#fbb4ae;" width="29.957" height="185.191"/> <polygon style="fill:#b3cde3;" points="196.085,147.064 185.191,326.052 226.043,309.106 226.043,147.064 "/> <polygon style="fill:#b3cde3;" points="196.085,147.064 166.128,147.064 166.128,309.106 196.085,326.052 "/> <polygon style="fill:rgb(132, 95, 92);;" points="196.085,471.149 226.043,471.149 226.043,309.106 196.085,309.106 185.191,390.128 "/> <rect x="166.128" y="309.106" style="fill:#fbb4ae;" width="29.957" height="162.043"/> <circle cx="133.447" cy="503.83" r="8.17"/> <circle cx="40.851" cy="503.83" r="8.17"/> <circle cx="503.83" cy="503.83" r="8.17"/> <circle cx="226.043" cy="503.83" r="8.17"/> <circle cx="318.638" cy="503.83" r="8.17"/> <circle cx="411.234" cy="503.83" r="8.17"/> <circle cx="8.17" cy="100.766" r="8.17"/> <circle cx="8.17" cy="8.17" r="8.17"/> <circle cx="8.17" cy="471.149" r="8.17"/> <circle cx="8.17" cy="193.362" r="8.17"/> <circle cx="8.17" cy="285.957" r="8.17"/> <circle cx="8.17" cy="378.553" r="8.17"/> <path d="M503.83,46.298h-59.915c-4.512,0-8.17,3.657-8.17,8.17v384c0,4.513,3.658,8.17,8.17,8.17c4.512,0,8.17-3.657,8.17-8.17 V270.979h43.574v192h-76.255V193.362c0-4.513-3.658-8.17-8.17-8.17h-59.915c-4.512,0-8.17,3.657-8.17,8.17v245.106 c0,4.513,3.658,8.17,8.17,8.17c4.512,0,8.17-3.657,8.17-8.17v-98.043h43.574v122.553h-76.255V100.766c0-4.513-3.658-8.17-8.17-8.17 h-59.915c-4.512,0-8.17,3.657-8.17,8.17v337.702c0,4.513,3.658,8.17,8.17,8.17c4.512,0,8.17-3.657,8.17-8.17v-144.34h43.574v168.851 h-76.255V147.064c0-4.513-3.658-8.17-8.17-8.17h-59.915c-4.512,0-8.17,3.657-8.17,8.17v291.404c0,4.513,3.658,8.17,8.17,8.17 s8.17-3.657,8.17-8.17V317.277h43.574v145.702h-76.255V193.362c0-4.513-3.658-8.17-8.17-8.17H73.532c-4.512,0-8.17,3.657-8.17,8.17 v245.106c0,4.513,3.658,8.17,8.17,8.17c4.512,0,8.17-3.657,8.17-8.17v-98.043h43.574v122.553H49.021V8.17 c0-4.513-3.658-8.17-8.17-8.17s-8.17,3.657-8.17,8.17v462.979c0,4.513,3.658,8.17,8.17,8.17H503.83c4.512,0,8.17-3.657,8.17-8.17 V54.468C512,49.955,508.342,46.298,503.83,46.298z M359.489,324.085V201.532h43.574v122.553H359.489z M266.894,277.787V108.936 h43.574v168.851H266.894z M174.298,300.936V155.234h43.574v145.702H174.298z M81.702,324.085V201.532h43.574v122.553H81.702z M452.085,254.638v-192h43.574v192H452.085z"/> </g>
</svg>