<!DOCTYPE svg PUBLIC "-//W3C//DTD SVG 1.1//EN" "http://www.w3.org/Graphics/SVG/1.1/DTD/svg11.dtd">
<!-- Uploaded to: SVG Repo, www.svgrepo.com, Transformed by: SVG Repo Mixer Tools -->
<svg width="64px" height="64px" viewBox="0 0 1024 1024" xmlns="http://www.w3.org/2000/svg" fill="#000000">
<g id="SVGRepo_bgCarrier" stroke-width="0"/>
<g id="SVGRepo_tracerCarrier" stroke-linecap="round" stroke-linejoin="round"/>
<g id="SVGRepo_iconCarrier">
<path fill="#000000" d="M512 64a32 32 0 0 1 32 32v192a32 32 0 0 1-64 0V96a32 32 0 0 1 32-32zm0 640a32 32 0 0 1 32 32v192a32 32 0 1 1-64 0V736a32 32 0 0 1 32-32zm448-192a32 32 0 0 1-32 32H736a32 32 0 1 1 0-64h192a32 32 0 0 1 32 32zm-640 0a32 32 0 0 1-32 32H96a32 32 0 0 1 0-64h192a32 32 0 0 1 32 32zM195.2 195.2a32 32 0 0 1 45.248 0L376.32 331.008a32 32 0 0 1-45.248 45.248L195.2 240.448a32 32 0 0 1 0-45.248zm452.544 452.544a32 32 0 0 1 45.248 0L828.8 783.552a32 32 0 0 1-45.248 45.248L647.744 692.992a32 32 0 0 1 0-45.248zM828.8 195.264a32 32 0 0 1 0 45.184L692.992 376.32a32 32 0 0 1-45.248-45.248l135.808-135.808a32 32 0 0 1 45.248 0zm-452.544 452.48a32 32 0 0 1 0 45.248L240.448 828.8a32 32 0 0 1-45.248-45.248l135.808-135.808a32 32 0 0 1 45.248 0z"/>
</g>
</svg>