<!DOCTYPE svg PUBLIC "-//W3C//DTD SVG 1.1//EN" "http://www.w3.org/Graphics/SVG/1.1/DTD/svg11.dtd">
<!-- Uploaded to: SVG Repo, www.svgrepo.com, Transformed by: SVG Repo Mixer Tools -->
<svg fill="#44486D" width="64px" height="64px" viewBox="0 0 32 32" enable-background="new 0 0 32 32" id="Layer_3" version="1.1" xml:space="preserve" xmlns="http://www.w3.org/2000/svg" xmlns:xlink="http://www.w3.org/1999/xlink">
<g id="SVGRepo_bgCarrier" stroke-width="0"/>
<g id="SVGRepo_tracerCarrier" stroke-linecap="round" stroke-linejoin="round"/>
<g id="SVGRepo_iconCarrier"> <g> <path d="M9,17.128c-0.552,0-1,0.447-1,1v10c0,0.553,0.448,1,1,1h4c0.552,0,1-0.447,1-1v-10c0-0.553-0.448-1-1-1H9z M12,27.128h-2 v-8h2V27.128z"/> <path d="M17,13.128c-0.552,0-1,0.447-1,1v14c0,0.553,0.448,1,1,1h4c0.552,0,1-0.447,1-1v-14c0-0.553-0.448-1-1-1H17z M20,27.128h-2 v-12h2V27.128z"/> <path d="M29,7.128h-4c-0.552,0-1,0.447-1,1v20c0,0.553,0.448,1,1,1h4c0.552,0,1-0.447,1-1v-20C30,7.575,29.552,7.128,29,7.128z M28,27.128h-2v-18h2V27.128z"/> <path d="M23.316,3.314c-0.205-0.306-0.563-0.474-0.929-0.438l-4.517,0.447c-0.35,0.034-0.656,0.251-0.806,0.568 c-0.15,0.318-0.122,0.692,0.074,0.984l0.72,1.073L2.443,16.298c-0.459,0.308-0.581,0.929-0.273,1.388 c0.193,0.287,0.509,0.442,0.831,0.442c0.191,0,0.385-0.055,0.556-0.17L18.973,7.61l0.558,0.831 c0.187,0.277,0.499,0.442,0.831,0.442c0.017,0,0.035,0,0.052-0.001c0.352-0.019,0.667-0.22,0.832-0.531L23.37,4.34 C23.542,4.015,23.522,3.62,23.316,3.314z M20.26,5.938l-0.529-0.789l1-0.099L20.26,5.938z"/> </g> </g>
</svg>